<svg width="54" height="54" viewBox="0 0 54 54" fill="none" xmlns="http://www.w3.org/2000/svg">
<circle cx="26.9934" cy="27.2198" r="26.46" fill="#D7EAFF"/>
<path d="M19.5615 21.4298H19.5725M19.5615 32.2936H19.5725M17.374 17.8086H34.874C36.0821 17.8086 37.0615 18.6192 37.0615 19.6192V23.2405C37.0615 24.2405 36.0821 25.0511 34.874 25.0511H17.374C16.1659 25.0511 15.1865 24.2405 15.1865 23.2405V19.6192C15.1865 18.6192 16.1659 17.8086 17.374 17.8086ZM17.374 28.6724H34.874C36.0821 28.6724 37.0615 29.483 37.0615 30.483V34.1042C37.0615 35.1042 36.0821 35.9149 34.874 35.9149H17.374C16.1659 35.9149 15.1865 35.1042 15.1865 34.1042V30.483C15.1865 29.483 16.1659 28.6724 17.374 28.6724Z" stroke="#1873DE" stroke-width="1.81062" stroke-linecap="round" stroke-linejoin="round"/>
</svg>
